<?xml version="1.0" encoding="iso-8859-1"?>
<!-- Generator: Adobe Illustrator 19.0.0, SVG Export Plug-In . SVG Version: 6.00 Build 0)  -->
<svg xmlns="http://www.w3.org/2000/svg" xmlns:xlink="http://www.w3.org/1999/xlink" version="1.1" id="Layer_1" x="0px" y="0px" viewBox="0 0 512 512" style="enable-background:new 0 0 512 512;" xml:space="preserve">
<path style="fill:#F7941E;" d="M475.357,112.941H36.643c-14.693,0-26.604,11.911-26.604,26.604v288.126  c0,14.693,11.911,26.604,26.604,26.604h438.714c14.693,0,26.604-11.911,26.604-26.604V139.545  C501.961,124.852,490.05,112.941,475.357,112.941z"/>
<path style="fill:#EF584F;" d="M232.724,191.659c-12.33,0-22.49,9.268-23.908,21.216c-1.42-11.949-11.578-21.216-23.908-21.216  c-13.302,0-24.085,10.783-24.085,24.085c0,25.334,47.991,53.522,47.991,53.522h0.005c0,0,47.991-28.188,47.991-53.522  C256.809,202.442,246.026,191.659,232.724,191.659z"/>
<g>
	<rect x="57.725" y="454.275" style="fill:#75706B;" width="60.235" height="40.157"/>
	<rect x="394.039" y="454.275" style="fill:#75706B;" width="60.235" height="40.157"/>
</g>
<g>
	<rect x="404.078" y="112.941" style="fill:#EFEFEF;" width="40.157" height="341.333"/>
	<rect x="67.765" y="112.941" style="fill:#EFEFEF;" width="40.157" height="341.333"/>
</g>
<g>
	<path style="fill:#231F20;" d="M475.357,102.902H373.961V67.514c0-33.128-26.856-59.984-59.984-59.984H198.024   c-33.128,0-59.984,26.856-59.984,59.984v35.388H36.643C16.406,102.902,0,119.308,0,139.545v288.126   c0,20.237,16.406,36.643,36.643,36.643h11.043v30.118c0,5.545,4.495,10.039,10.039,10.039h60.235   c5.545,0,10.039-4.495,10.039-10.039v-30.118h256v30.118c0,5.545,4.495,10.039,10.039,10.039h60.235   c5.545,0,10.039-4.495,10.039-10.039v-30.118h11.043c20.237,0,36.643-16.406,36.643-36.643V139.545   C512,119.308,495.594,102.902,475.357,102.902z M434.196,122.98v321.255h-20.078V122.98H434.196z M117.961,444.235V122.98h80.816   v61.593c-4.254-1.895-8.949-2.953-13.869-2.953c-18.816,0-34.124,15.308-34.124,34.123c0,30.209,47.528,58.996,52.947,62.18   c1.541,0.905,3.301,1.382,5.088,1.382c1.787,0,3.543-0.478,5.084-1.382c5.419-3.183,52.947-31.971,52.947-62.18   c0-18.816-15.308-34.123-34.124-34.123c-4.92,0-9.616,1.057-13.869,2.953V122.98h175.184v321.255H117.961z M198.846,214.058   c0.766,6.445,7.526,10.859,14.301,7.934c3.218-1.389,5.212-4.556,5.65-8.033c0.88-6.996,6.851-12.261,13.927-12.261   c7.745,0,14.046,6.301,14.046,14.045c0,12.227-20.759,30.57-37.955,41.719c-17.199-11.151-37.955-29.492-37.955-41.719   c0-7.744,6.301-14.045,14.046-14.045C192.017,201.698,198.009,207.012,198.846,214.058z M158.118,67.514   c0-22.039,17.867-39.906,39.906-39.906h115.953c22.039,0,39.906,17.867,39.906,39.906v35.388H158.118V67.514z M97.882,122.98   v321.255H77.804V122.98H97.882z M20.078,427.671V139.545c0-9.149,7.416-16.565,16.565-16.565h21.082v321.255H36.643   C27.494,444.235,20.078,436.819,20.078,427.671z M107.922,484.392H67.765v-20.078h40.157V484.392z M444.235,484.392h-40.157   v-20.078h40.157V484.392z M491.922,427.671c0,9.149-7.416,16.565-16.565,16.565h-21.082V122.98h21.082   c9.149,0,16.565,7.416,16.565,16.565V427.671z"/>
	<path style="fill:#231F20;" d="M197.773,403.577h-3.012c-5.544,0-10.039,4.496-10.039,10.039c0,5.544,4.496,10.039,10.039,10.039   h3.012c5.544,0,10.039-4.496,10.039-10.039C207.812,408.072,203.316,403.577,197.773,403.577z"/>
	<path style="fill:#231F20;" d="M352.376,403.577H232.408c-5.544,0-10.039,4.496-10.039,10.039c0,5.544,4.496,10.039,10.039,10.039   h119.969c5.544,0,10.039-4.496,10.039-10.039C362.416,408.072,357.92,403.577,352.376,403.577z"/>
</g>
<g>
</g>
<g>
</g>
<g>
</g>
<g>
</g>
<g>
</g>
<g>
</g>
<g>
</g>
<g>
</g>
<g>
</g>
<g>
</g>
<g>
</g>
<g>
</g>
<g>
</g>
<g>
</g>
<g>
</g>
</svg>
